<svg width="559" height="385" viewBox="0 0 559 385" fill="none" xmlns="http://www.w3.org/2000/svg">
<path d="M37.3817 175.243L177.4 107.047L389.24 183.223V233.281L305.81 282.614C247.683 329.107 222.018 333.5 177.4 337.75C94.8123 327.633 6.18594 251.418 9.08796 233.281C11.99 215.144 37.3817 175.243 37.3817 175.243Z" fill="url(#paint0_linear_99_676)"/>
<path d="M125.822 130.988C123.646 134.616 125.097 149.125 125.097 149.125C135.748 152.559 141.647 152 151.94 145.498C151.94 145.498 154.116 128.086 151.94 125.91C149.764 123.733 141.057 119.381 137.43 120.106C133.803 120.831 127.999 127.361 125.822 130.988Z" fill="white"/>
<path d="M103.331 132.439C96.0763 133.89 89.8396 146.17 92.449 162.91C96.424 164.886 98.7533 165.626 103.331 165.086C108.828 164.005 111.92 162.273 117.841 157.106L117.819 156.866C117.031 148.139 116.582 143.17 113.488 132.439C113.488 132.439 110.586 130.988 103.331 132.439Z" fill="white"/>
<path d="M83.7434 147.674C67.7638 151.891 65.1417 161.155 64.8809 182.497C70.8681 185.585 74.1985 185.279 80.116 183.948C85.2821 181.149 87.4541 179.334 88.8217 175.243C89.5081 164.185 90.1222 157.961 83.7434 147.674Z" fill="white"/>
<path d="M53.2732 207.889C44.5533 212.375 42.6562 217.582 43.1165 230.379C49.3262 237.217 53.9691 236.939 64.1554 230.379L64.144 230.334C61.495 219.918 60.0079 214.07 53.2732 207.889Z" fill="white"/>
<path d="M57.2851 183.948C48.2918 187.97 46.3351 192.638 46.8099 204.11C53.2144 210.241 58.0028 209.99 68.5086 204.11L68.4967 204.07C65.7647 194.731 64.231 189.489 57.2851 183.948Z" fill="white"/>
<path d="M103.331 267.379C101.154 273.183 103.331 293.496 103.331 293.496C115.091 299.596 121.508 300.542 132.35 293.496C132.35 293.496 132.35 282.614 129.448 271.732C126.546 260.849 117.84 259.398 117.84 259.398C117.84 259.398 105.507 261.575 103.331 267.379Z" fill="white"/>
<path d="M51.8223 228.928V249.967C51.8223 249.967 71.4103 263.026 71.4103 259.398V226.752C68.1907 212.548 64.0017 212.685 51.8223 228.928Z" fill="#E8E7E7"/>
<path d="M66.5738 247.065C64.3973 252.869 66.5738 273.183 66.5738 273.183C78.3343 279.283 84.7507 280.229 95.593 273.183C95.593 273.183 95.593 262.3 92.6911 251.418C89.7892 240.536 81.0834 239.085 81.0834 239.085C81.0834 239.085 68.7502 241.261 66.5738 247.065Z" fill="white"/>
<path d="M147.585 268.104C142.542 276.065 140.752 282.897 141.056 302.927C156.517 311.207 163.12 310.636 172.252 302.927C173.15 290.476 172.416 283.366 167.173 270.281C160.797 263.207 156.366 263.423 147.585 268.104Z" fill="white"/>
<path d="M266.565 255.771L264.389 284.064C275.998 291.883 282.522 290.937 294.133 284.064C293.021 268.556 294.556 259.372 282.526 246.339C270.83 245.425 269.47 249.286 266.565 255.771Z" fill="white"/>
<path d="M209.976 271.006C217.396 284.037 216.966 292.062 215.055 306.555C203.443 311.938 196.925 310.787 185.31 306.555C183.996 289.371 184.564 280.273 195.467 268.104C204.574 266.622 207.481 267.47 209.976 271.006Z" fill="white"/>
<path d="M228.114 299.3C239.121 306.036 245.794 306.021 258.584 299.3C259.4 280.732 257.926 272.913 252.055 263.026C244.27 259.418 237.545 260.85 233.192 265.928C228.84 271.006 227.359 286.404 228.114 299.3Z" fill="white"/>
<path d="M297.035 236.909L294.133 263.026C304.311 270.878 309.681 271.903 318.074 263.026V240.536L306.466 226.752L297.035 236.909Z" fill="white"/>
<path d="M477.709 141.439L476.386 198.962L532.963 196.036L540.589 166.84C530.027 154.715 519.535 147.127 498.009 132.464L477.709 141.439Z" fill="#89C694"/>
<path d="M533.826 183.209C535.635 181.32 533.898 160.153 533.898 160.153C550.993 170.114 553.087 176.802 553.735 189.184C549.32 194.004 545.738 194.731 538.629 194.775L540.677 203.981C540.677 203.981 542.645 209.489 536.745 213.032C530.844 216.574 509.518 210.914 509.518 210.914L499.92 221.225L482.922 218.318L483.546 194.396L497.079 188.412L509.041 195.412C512.29 187.946 515.402 184.271 524.775 179.277C524.775 179.277 532.016 185.098 533.826 183.209Z" fill="#C8BE78"/>
<path d="M505.092 137.577C497.652 127.153 490.886 123.618 473.455 122.319L475.822 146.319L485.265 148.677L505.092 137.577Z" fill="#638B6C"/>
<path d="M538.62 285.516L445.759 282.614C446.924 258.426 453.739 224.575 460.268 219.497C466.798 214.418 492.593 210.615 513.954 214.418C534.593 242.579 537.35 258.051 538.62 285.516Z" fill="#89C694"/>
<path d="M513.954 215.869C492.199 212.069 480.34 213.606 459.543 220.222C461.506 203.206 466.211 193.846 479.856 177.419C500.995 191.726 507.701 200.21 513.954 215.869Z" fill="#638B6C"/>
<path d="M461.719 259.399C452.288 259.399 449.76 272.729 446.484 283.339C454.903 293.177 461.722 292.427 474.778 288.418C479.276 296.632 482.767 300.275 492.19 303.653C498.838 302 502.647 299.119 509.601 288.418C519.529 292.724 525.234 294.282 536.444 291.32C540.616 279.983 534.268 256.497 530.64 256.497C527.013 256.497 521.934 259.399 521.934 259.399L512.503 276.81H509.601C509.601 276.81 498.719 259.399 490.013 263.751C481.307 268.104 478.406 275.359 478.406 275.359H472.602C472.602 275.359 471.151 259.399 461.719 259.399Z" fill="#C8BE78"/>
<path d="M405 271.765L396.5 236.265C358.681 103.364 305.332 85.9029 182 104.765C222.297 64.3555 289.924 -7.41211 346.372 0.621545C363.901 8.19729 373.514 12.8003 383.322 33.2719C410.591 32.3126 421.575 35.713 436.212 46.3321C471.976 76.4822 482.215 113.604 492 197.249C485.883 270.19 473 243.265 447 261.765C421 280.265 405 271.765 405 271.765Z" fill="#487051"/>
<path d="M284 100.265C193.5 78.7646 87.1479 121.307 28 146.184L205.5 303.765C261.36 316.2 303.788 274.684 387.5 222.765C399.5 205.765 374.5 121.765 284 100.265Z" fill="#638B6C"/>
<path d="M373.843 79.8503C362.993 90.1655 357.102 100.136 347 124.105L385.451 162.555C402.448 149.865 412.073 143.346 426.803 117.575C427.658 100.162 425.009 91.2151 410.842 77.6739C396.394 74.0091 388.296 75.2666 373.843 79.8503Z" fill="white" fill-opacity="0.7"/>
<ellipse cx="387.83" cy="116.149" rx="17.657" ry="21.6456" transform="rotate(44.1116 387.83 116.149)" fill="#26873C"/>
<path d="M373.117 108.144C366.238 105.205 362.756 103.204 361.51 95.0855C364.651 88.9326 367.265 85.6076 373.117 79.8503C387.661 73.9237 395.859 71.9676 410.842 77.6739C418.149 83.9162 421.335 87.9382 424.627 96.5364L407.941 97.2619C394.463 104.911 386.87 107.451 373.117 108.144Z" fill="#5E8A68"/>
<ellipse cx="387.452" cy="118.175" rx="8.53784" ry="10.7468" transform="rotate(44.1116 387.452 118.175)" fill="black"/>
<ellipse cx="386.74" cy="110.369" rx="2.7502" ry="3.46174" transform="rotate(32.9624 386.74 110.369)" fill="white"/>
<path d="M348.545 294.222L427.622 268.83L391.348 232.556C391.348 232.556 342.741 260.85 317.349 277.536C291.957 294.222 240.448 337.025 180.959 339.202C121.469 341.378 22.138 260.85 14.8228 241.262C7.50751 221.674 45.2936 170.165 45.2936 170.165C45.2936 170.165 11.196 191.929 3.2157 216.595C-4.7646 241.262 3.71934 265.3 11.196 286.242C85.3579 365.501 125.409 389.057 193.292 383.456C259.508 360.777 294.639 343.726 348.545 294.222Z" fill="#67826C"/>
<path d="M3 183.575C32.1202 281.472 114.095 316.988 238.5 307.265C241.38 253.182 234.81 246.148 195.253 200.262C173.902 176.627 160.113 170.967 132.861 171.968C121.682 146.928 112.834 136.85 91.5087 126.988C32.2729 117.866 25.4585 146.156 3 183.575Z" fill="#73997B"/>
<path d="M279.784 58.68C272.226 73.4642 268.922 81.6128 266 95.6796C283.292 98.3672 292.995 100.699 310.254 108.013C320.172 101.869 325.236 95.8742 333.47 81.17C339.971 53.2542 336.278 44.8561 322.588 36.9156C306.525 35.554 297.377 36.8299 279.784 58.68Z" fill="#CEE7D4"/>
<ellipse cx="299.785" cy="73.5664" rx="16.2964" ry="19.9776" transform="rotate(37.3994 299.785 73.5664)" fill="#26873C"/>
<ellipse cx="299.324" cy="74.5186" rx="8.53784" ry="10.7468" transform="rotate(32.9624 299.324 74.5186)" fill="black"/>
<ellipse cx="300.662" cy="66.7085" rx="2.7502" ry="3.46174" transform="rotate(32.9624 300.662 66.7085)" fill="white"/>
<path d="M311.706 81.1699C312.177 66.3865 311.041 56.0411 308.078 36.1901C308.078 36.1901 320.807 31.4449 332.019 43.4449C343.231 55.4449 332.579 88.472 332.019 84.0718C323.203 87.6917 318.689 87.3525 311.706 81.1699Z" fill="#5E8A68"/>
<path d="M105.5 187.445L80 174.945C80 174.945 95.5 162.945 100.5 168.945C105.5 174.945 105.5 187.445 105.5 187.445Z" fill="black" stroke="black"/>
<path d="M166.5 228.445L141 215.945C141 215.945 156.5 203.945 161.5 209.945C166.5 215.945 166.5 228.445 166.5 228.445Z" fill="black" stroke="black"/>
<defs>
<linearGradient id="paint0_linear_99_676" x1="199.129" y1="107.047" x2="199.129" y2="337.75" gradientUnits="userSpaceOnUse">
<stop offset="0.340169" stop-color="#7D1919"/>
<stop offset="1" stop-color="#E0A8A9"/>
</linearGradient>
</defs>
</svg>
