<svg xmlns="http://www.w3.org/2000/svg" width="554" height="463" viewBox="0 0 554 463" fill="none">
<path d="M68.5088 101.627L79.391 87.1172C186.884 167.163 255.942 195.614 392.799 220.606V264.135C392.799 264.135 213.605 206.822 175.155 183.606C136.704 160.391 103.648 141.271 68.5088 101.627Z" fill="#AA5959"/>
<path d="M96.0766 119.764C86.6453 111.784 93.9001 98.7251 93.9001 98.7251L118.566 117.588C118.566 117.588 105.508 127.744 96.0766 119.764Z" fill="white"/>
<path d="M130.282 146.207C120.557 138.588 127.314 125.265 127.314 125.265L152.674 143.185C152.674 143.185 140.007 153.826 130.282 146.207Z" fill="white"/>
<path d="M168.395 172.371C158.669 164.752 165.665 150.499 165.665 150.499L192.509 165.009C192.509 165.009 178.12 179.99 168.395 172.371Z" fill="white"/>
<path d="M209.252 191.587C199.526 183.967 204.841 172.264 204.841 172.264L232.467 184.332C232.467 184.332 218.977 199.206 209.252 191.587Z" fill="white"/>
<path d="M252.184 206.865C242.724 200.115 247.945 189.682 247.945 189.682L275.227 198.366C275.227 198.366 261.643 213.614 252.184 206.865Z" fill="white"/>
<path d="M294.618 221.942C284.738 214.745 289.291 202.696 289.291 202.696L317.101 211.25C317.101 211.25 304.498 229.138 294.618 221.942Z" fill="white"/>
<path d="M339.211 231.902C328.45 226.106 331.333 213.553 331.333 213.553L360.044 218.272C360.044 218.272 349.973 237.697 339.211 231.902Z" fill="white"/>
<path d="M375.485 242.058C364.724 236.263 367.607 223.709 367.607 223.709L396.317 228.429C396.317 228.429 386.246 247.854 375.485 242.058Z" fill="white"/>
<path d="M388.843 314.075V226.282L228 62.3044C268.297 21.8953 288.924 -6.67663 345.372 1.35703C362.901 8.93277 372.514 13.5358 382.322 34.0074C409.591 33.0481 420.575 36.4485 435.212 47.0676C470.976 77.2177 481.215 114.339 491 197.985C484.883 270.926 451.876 316.252 448.253 328.586C444.631 340.921 419.997 346 419.997 346L388.843 314.075Z" fill="#487051"/>
<path d="M37.3817 253.978L177.4 185.783L389.24 261.958V312.016L305.81 361.349C247.683 407.843 222.018 412.235 177.4 416.486C94.8123 406.369 6.18594 330.154 9.08796 312.016C11.99 293.879 37.3817 253.978 37.3817 253.978Z" fill="url(#paint0_linear_98_675)"/>
<path d="M125.822 209.724C123.645 213.351 125.096 227.861 125.096 227.861C135.748 231.294 141.646 230.735 151.939 224.233C151.939 224.233 154.115 206.822 151.939 204.645C149.763 202.469 141.056 198.116 137.43 198.841C133.803 199.567 127.998 206.096 125.822 209.724Z" fill="#A29F9F" id="tooth1" class="tooth"/>
<path d="M103.332 211.175C96.0768 212.626 89.8401 224.906 92.4494 241.645C96.4245 243.622 98.7538 244.361 103.332 243.821C108.829 242.74 111.92 241.008 117.841 235.841L117.82 235.601C117.031 226.874 116.582 221.905 113.488 211.175C113.488 211.175 110.587 209.724 103.332 211.175Z" fill="#A29F9F" id="tooth2" class="tooth"/>
<path d="M83.7434 226.41C67.7638 230.626 65.1417 239.891 64.8809 261.233C70.8681 264.32 74.1985 264.014 80.116 262.684C85.2821 259.885 87.4541 258.07 88.8217 253.978C89.5081 242.92 90.1222 236.696 83.7434 226.41Z" fill="#A29F9F" id="tooth3" class="tooth"/>
<path d="M53.2732 286.625C44.5533 291.111 42.6562 296.318 43.1165 309.114C49.3262 315.953 53.9691 315.674 64.1554 309.114L64.144 309.069C61.495 298.653 60.0079 292.805 53.2732 286.625Z" fill="#A29F9F" id="tooth5" class="tooth"/>
<path d="M57.2851 262.684C48.2918 266.705 46.3351 271.373 46.8099 282.845C53.2144 288.976 58.0028 288.726 68.5086 282.845L68.4967 282.805C65.7647 273.467 64.231 268.224 57.2851 262.684Z" fill="#A29F9F" id="tooth4" class="tooth"/>
<path d="M103.331 346.114C101.155 351.918 103.331 372.231 103.331 372.231C115.092 378.331 121.508 379.278 132.35 372.231C132.35 372.231 132.35 361.349 129.448 350.467C126.546 339.585 117.841 338.134 117.841 338.134C117.841 338.134 105.508 340.31 103.331 346.114Z" fill="#A29F9F" id="tooth8" class="tooth"/>
<path d="M51.8223 307.663V328.702C51.8223 328.702 71.4103 341.761 71.4103 338.134V305.487C68.1907 291.283 64.0017 291.42 51.8223 307.663Z" fill="#A29F9F" id="tooth6" class="tooth"/>
<path d="M66.5738 325.801C64.3973 331.604 66.5738 351.918 66.5738 351.918C78.3343 358.018 84.7507 358.964 95.593 351.918C95.593 351.918 95.593 341.036 92.6911 330.153C89.7892 319.271 81.0834 317.82 81.0834 317.82C81.0834 317.82 68.7502 319.997 66.5738 325.801Z" fill="#A29F9F" id="tooth7" class="tooth"/>
<path d="M147.586 346.84C142.542 354.801 140.753 361.632 141.057 381.663C156.518 389.942 163.12 389.371 172.252 381.663C173.15 369.211 172.417 362.101 167.174 349.016C160.797 341.942 156.366 342.158 147.586 346.84Z" fill="#A29F9F" id="tooth9" class="tooth"/>
<path d="M266.565 334.506L264.388 362.8C275.997 370.619 282.522 369.673 294.133 362.8C293.021 347.291 294.555 338.107 282.525 325.075C270.83 324.16 269.47 328.021 266.565 334.506Z" fill="#A29F9F" id="tooth12" class="tooth"/>
<path d="M209.977 349.741C217.396 362.773 216.966 370.798 215.055 385.29C203.443 390.673 196.925 389.522 185.311 385.29C183.996 368.107 184.564 359.008 195.467 346.839C204.574 345.357 207.481 346.206 209.977 349.741Z" fill="#A29F9F" id="tooth10" class="tooth"/>
<path d="M228.114 378.036C239.121 384.771 245.794 384.756 258.584 378.036C259.4 359.467 257.926 351.648 252.055 341.761C244.27 338.153 237.545 339.585 233.192 344.663C228.84 349.742 227.359 365.139 228.114 378.036Z" fill="#A29F9F" id="tooth11" class="tooth"/>
<path d="M297.035 315.644L294.133 341.761C304.311 349.613 309.681 350.639 318.074 341.761V319.271L306.466 305.487L297.035 315.644Z" fill="#A29F9F" id="tooth13" class="tooth"/>
<path d="M332.584 102.353C289.78 71.8827 220.424 71.2151 157.743 67.5298L289.78 204.646L397.877 230.763C398.974 176.014 375.387 132.823 332.584 102.353Z" fill="#638B6C"/>
<path d="M348.545 372.957L427.622 347.565L391.348 311.291C391.348 311.291 342.741 339.585 317.349 356.271C291.957 372.957 240.448 415.761 180.959 417.937C121.469 420.114 22.138 339.585 14.8228 319.997C7.50751 300.409 45.2936 248.9 45.2936 248.9C45.2936 248.9 11.196 270.664 3.2157 295.331C-4.7646 319.997 3.71934 344.035 11.196 364.977C85.3579 444.236 125.409 467.793 193.292 462.191C259.508 439.513 294.639 422.462 348.545 372.957Z" fill="#67826C"/>
<path d="M49.646 60.2747C148.44 149.519 200.685 177.706 290.506 204.645C293.385 150.563 281.456 122.848 241.899 76.9607C220.548 53.3267 206.759 47.6662 179.507 48.667C168.328 23.6272 159.48 13.549 138.155 3.68711C78.9189 -5.43476 72.1045 22.8553 49.646 60.2747Z" fill="#73997B"/>
<path d="M489.288 213.351L475.504 269.213L531.366 278.645L545.15 251.802C537.474 237.673 528.88 227.987 511.052 208.999L489.288 213.351Z" fill="#89C694"/>
<path d="M534.993 266.311C537.17 264.86 540.072 243.821 540.072 243.821C554.595 257.258 555.187 264.241 553.13 276.468C547.773 280.213 544.119 280.145 537.17 278.644V288.076C537.17 288.076 537.895 293.88 531.366 296.056C524.836 298.232 505.248 288.076 505.248 288.076L493.641 296.056L477.68 289.527L483.484 266.311L497.994 263.409L508.15 272.841C512.943 266.258 516.779 263.347 527.013 260.507C527.013 260.507 532.817 267.762 534.993 266.311Z" fill="#C8BE78"/>
<path d="M516.856 215.528C511.858 203.737 506.021 198.817 489.288 193.763L486.386 217.704L495.092 222.057L516.856 215.528Z" fill="#638B6C"/>
<path d="M363.054 59.5491C352.204 69.8643 346.313 79.8347 336.211 103.803L374.661 142.254C391.659 129.563 401.284 123.045 416.014 97.2741C416.869 79.8605 414.22 70.9138 400.053 57.3726C385.605 53.7078 377.507 54.9653 363.054 59.5491Z" fill="white" fill-opacity="0.7"/>
<ellipse cx="377.041" cy="95.8481" rx="17.657" ry="21.6456" transform="rotate(44.1116 377.041 95.8481)" fill="#26873C"/>
<path d="M362.328 87.8428C355.449 84.9033 351.967 82.9023 350.721 74.7842C353.862 68.6314 356.476 65.3063 362.328 59.5491C376.872 53.6224 385.07 51.6663 400.053 57.3726C407.36 63.6149 410.546 67.6369 413.838 76.2352L397.152 76.9606C383.674 84.6098 376.081 87.1501 362.328 87.8428Z" fill="#5E8A68"/>
<ellipse cx="376.664" cy="97.8742" rx="8.53784" ry="10.7468" transform="rotate(44.1116 376.664 97.8742)" fill="black"/>
<ellipse cx="375.951" cy="90.0674" rx="2.7502" ry="3.46174" transform="rotate(32.9624 375.951 90.0674)" fill="white"/>
<path d="M538.62 364.251L445.759 361.349C446.924 337.162 453.739 303.311 460.268 298.232C466.798 293.154 492.593 289.35 513.954 293.154C534.593 321.315 537.35 336.786 538.62 364.251Z" fill="#89C694"/>
<path d="M513.954 294.605C492.199 290.804 480.34 292.341 459.543 298.958C461.506 281.941 466.211 272.582 479.856 256.154C500.995 270.461 507.701 278.946 513.954 294.605Z" fill="#638B6C"/>
<path d="M461.719 338.134C452.288 338.134 449.76 351.464 446.484 362.075C454.903 371.913 461.722 371.162 474.778 367.153C479.276 375.368 482.767 379.01 492.19 382.388C498.838 380.735 502.647 377.854 509.601 367.153C519.529 371.459 525.234 373.018 536.444 370.055C540.616 358.719 534.268 335.232 530.64 335.232C527.013 335.232 521.934 338.134 521.934 338.134L512.503 355.545H509.601C509.601 355.545 498.719 338.134 490.013 342.487C481.307 346.84 478.406 354.094 478.406 354.094H472.602C472.602 354.094 471.151 338.134 461.719 338.134Z" fill="#C8BE78"/>
<path d="M266.564 35.6083C259.007 50.3925 255.702 58.541 252.78 72.6078C270.072 75.2954 279.776 77.6274 297.035 84.941C306.953 78.7973 312.016 72.8024 320.25 58.0982C326.751 30.1824 323.058 21.7843 309.368 13.8438C293.306 12.4822 284.158 13.7582 266.564 35.6083Z" fill="#CEE7D4"/>
<ellipse cx="286.565" cy="50.4946" rx="16.2964" ry="19.9776" transform="rotate(37.3994 286.565 50.4946)" fill="#26873C"/>
<ellipse cx="286.104" cy="51.4468" rx="8.53784" ry="10.7468" transform="rotate(32.9624 286.104 51.4468)" fill="black"/>
<ellipse cx="287.442" cy="43.6367" rx="2.7502" ry="3.46174" transform="rotate(32.9624 287.442 43.6367)" fill="white"/>
<path d="M298.486 58.0981C298.958 43.3147 297.821 32.9693 294.858 13.1183C294.858 13.1183 307.587 8.37308 318.799 20.3731C330.012 32.3731 319.36 65.4002 318.799 61.0001C309.983 64.6199 305.469 64.2807 298.486 58.0981Z" fill="#5E8A68"/>
<path d="M141 44.0003L115.5 31.5003C115.5 31.5003 131 19.5003 136 25.5003C141 31.5003 141 44.0003 141 44.0003Z" fill="black" stroke="black"/>
<path d="M204.5 85.18L179 72.68C179 72.68 194.5 60.68 199.5 66.68C204.5 72.68 204.5 85.18 204.5 85.18Z" fill="black" stroke="black"/>
<defs>
<linearGradient id="paint0_linear_98_675" x1="199.129" y1="185.783" x2="199.129" y2="416.486" gradientUnits="userSpaceOnUse">
<stop offset="0.340169" stop-color="#7D1919"/>
<stop offset="1" stop-color="#E0A8A9"/>
</linearGradient>
</defs>
</svg>